<svg width="236" height="48" viewBox="0 0 236 48" fill="none" xmlns="http://www.w3.org/2000/svg">
<path d="M34.6148 4.34876C35.6933 4.34876 36.5675 3.4745 36.5675 2.39606C36.5675 1.31761 35.6933 0.443359 34.6148 0.443359C33.5364 0.443359 32.6621 1.31761 32.6621 2.39606C32.6621 3.4745 33.5364 4.34876 34.6148 4.34876Z" fill="url(#paint0_radial_752_5173)"/>
<path d="M29.973 40.3857V37.3489H0V40.6897H0.00613629C0.128862 44.737 6.78809 48.0001 14.9902 48.0001C23.2688 48.0001 29.9805 44.6763 29.9805 40.5766C29.9825 40.5111 29.9757 40.4484 29.973 40.3857Z" fill="url(#paint1_linear_752_5173)"/>
<path d="M14.997 44.7724C23.2785 44.7724 29.992 41.4487 29.992 37.3488C29.992 33.2489 23.2785 29.9253 14.997 29.9253C6.71545 29.9253 0.00195312 33.2489 0.00195312 37.3488C0.00195312 41.4487 6.71545 44.7724 14.997 44.7724Z" fill="url(#paint2_linear_752_5173)"/>
<path d="M26.8505 41.8932L14.777 34.9224L12.793 38.3614L22.2824 43.8404C24.0592 43.3475 25.6117 42.6841 26.8505 41.8932Z" fill="url(#paint3_linear_752_5173)"/>
<path d="M24.6536 11.5255L18.9782 10.0664C16.6696 19.0233 14.3037 28.2707 11.9951 37.2297C12.0074 37.2426 11.9951 37.2228 11.9951 37.3517C11.9951 38.1699 13.339 38.838 14.9951 38.838C16.6376 38.838 17.9705 38.1849 17.995 37.3742C20.215 28.757 22.4345 20.1408 24.6536 11.5255Z" fill="url(#paint4_linear_752_5173)"/>
<path d="M21.3211 21.5874C27.2823 21.5874 32.1148 16.7549 32.1148 10.7937C32.1148 4.83251 27.2823 0 21.3211 0C15.3599 0 10.5273 4.83251 10.5273 10.7937C10.5273 16.7549 15.3599 21.5874 21.3211 21.5874Z" fill="url(#paint5_radial_752_5173)"/>
<path d="M15.6139 23.1445C14.403 27.8626 13.1907 32.5842 11.9941 37.2266C12.0064 37.2396 11.9941 37.2198 11.9941 37.3486C11.9941 38.1668 13.338 38.835 14.9941 38.835C16.6366 38.835 17.9695 38.1818 17.9941 37.3711L20.5999 27.2524C18.5587 26.4222 16.8193 24.9892 15.6139 23.1445Z" fill="url(#paint6_linear_752_5173)"/>
<path d="M15.6197 23.1814C14.4088 27.8995 13.1966 32.621 12 37.2635C12.0123 37.2764 12 37.2567 12 37.3855C12 38.2037 13.3438 38.8719 15 38.8719C16.6424 38.8719 17.9754 38.2187 17.9999 37.408L20.6058 27.2893C18.5646 26.4591 16.8251 25.026 15.6197 23.1814Z" fill="url(#paint7_linear_752_5173)"/>
<path d="M9.32094 19.9258C9.95016 19.9258 10.4602 19.4157 10.4602 18.7865C10.4602 18.1573 9.95016 17.6472 9.32094 17.6472C8.69172 17.6472 8.18164 18.1573 8.18164 18.7865C8.18164 19.4157 8.69172 19.9258 9.32094 19.9258Z" fill="url(#paint8_radial_752_5173)"/>
<path d="M29.4634 23.4807C30.3498 23.4807 31.0684 22.7621 31.0684 21.8757C31.0684 20.9893 30.3498 20.2708 29.4634 20.2708C28.577 20.2708 27.8584 20.9893 27.8584 21.8757C27.8584 22.7621 28.577 23.4807 29.4634 23.4807Z" fill="url(#paint9_radial_752_5173)"/>
<path fill-rule="evenodd" clip-rule="evenodd" d="M49.6987 37.1657C49.3259 38.1481 48.9507 39.1371 48.5674 40.1367L54.4374 40.1767C54.7374 40.1767 54.8374 40.0767 54.9274 39.8067C55.5727 37.9266 56.2244 36.0781 56.8773 34.226C57.0439 33.7534 57.2107 33.2805 57.3774 32.8067C57.3882 32.7468 57.4108 32.6896 57.4439 32.6385C57.4769 32.5874 57.5198 32.5433 57.5701 32.5089C57.6203 32.4745 57.6769 32.4504 57.7365 32.438C57.7961 32.4256 57.8576 32.4252 57.9174 32.4367H70.1974C70.3189 32.419 70.4427 32.4485 70.5431 32.5191C70.6436 32.5898 70.7131 32.6963 70.7374 32.8167C71.206 34.2287 71.6891 35.6298 72.1715 37.0288C72.4919 37.9582 72.812 38.8867 73.1274 39.8167C73.1346 39.8705 73.1527 39.9223 73.1805 39.9689C73.2084 40.0154 73.2454 40.0558 73.2894 40.0877C73.3334 40.1195 73.3833 40.142 73.4363 40.1539C73.4892 40.1657 73.544 40.1667 73.5974 40.1567H79.2974C79.6574 40.1567 79.6874 40.0667 79.5674 39.7367C75.774 29.6301 71.9874 19.5134 68.2074 9.38674C68.1808 9.26354 68.1078 9.15531 68.0035 9.08454C67.8992 9.01377 67.7717 8.98591 67.6474 9.00674H60.8474C60.7099 8.98612 60.5698 9.01931 60.4561 9.0994C60.3425 9.1795 60.2642 9.30033 60.2374 9.43674L50.7374 34.4367C50.3903 35.343 50.0456 36.2515 49.6987 37.1657ZM68.6874 26.9967C68.7874 27.1367 68.8374 27.2767 68.7874 27.4367H59.2574L60.6174 23.5667C60.8055 23.1016 60.9746 22.6337 61.1431 22.1673C61.2969 21.7414 61.4503 21.3168 61.6174 20.8967C62.5823 18.3914 63.0444 15.7206 62.9774 13.0367C62.9774 12.6167 63.1074 12.5267 63.5174 12.5267C63.9435 12.5568 64.3712 12.5568 64.7974 12.5267C65.1274 12.5267 65.2174 12.6267 65.2174 12.9367C65.1882 15.265 65.5257 17.5834 66.2174 19.8067C66.3345 20.1553 66.4517 20.5055 66.5688 20.8557C66.8617 21.7312 67.1545 22.6067 67.4474 23.4567L68.6874 26.9967ZM179.157 24.5667V9.5167C179.157 9.1167 179.237 9.0067 179.647 9.0067H190.267C193.115 8.95034 195.936 9.57067 198.497 10.8167C201.454 12.2623 203.792 14.7216 205.087 17.7467C206.293 20.6254 206.691 23.7787 206.237 26.8667C205.938 29.918 204.686 32.7977 202.657 35.0967C201.118 36.8465 199.17 38.1895 196.987 39.0067C194.812 39.8129 192.507 40.2096 190.187 40.1767H179.567C179.207 40.1767 179.147 40.0767 179.147 39.7667C179.161 34.6867 179.164 29.62 179.157 24.5667ZM184.917 24.5667V34.7267C184.917 35.0567 184.977 35.1767 185.327 35.1667H189.787C191.215 35.186 192.639 35.0076 194.017 34.6367C195.269 34.3355 196.425 33.7256 197.381 32.8627C198.336 31.9998 199.061 30.9113 199.487 29.6967C200.617 26.6296 200.698 23.2747 199.717 20.1567C199.183 18.3146 198.028 16.7141 196.447 15.6267C194.958 14.6507 193.227 14.1072 191.447 14.0567C190.306 13.9882 189.164 13.9979 188.012 14.0077C187.145 14.015 186.272 14.0225 185.387 13.9967C185.027 13.9967 184.927 14.0767 184.937 14.4367V24.5467L184.917 24.5667ZM143.567 40.0068L146.037 33.4868C149.097 25.4868 152.147 17.4868 155.187 9.48682C155.219 9.35077 155.299 9.23127 155.414 9.15173C155.529 9.07219 155.669 9.03834 155.807 9.05682H162.567C162.691 9.03844 162.818 9.0673 162.921 9.13768C163.025 9.20806 163.099 9.31482 163.127 9.43682C166.934 19.5568 170.747 29.6802 174.567 39.8068C174.567 39.8791 174.599 39.9514 174.635 40.035C174.649 40.0671 174.664 40.1008 174.677 40.1368H168.497C168.265 40.1368 168.223 40.0071 168.17 39.8441L168.157 39.8068L168.003 39.3691L167.774 38.7224L167.773 38.7215L167.773 38.7206C167.079 36.7618 166.384 34.7985 165.717 32.8068C165.708 32.7431 165.685 32.6819 165.652 32.6268C165.618 32.5717 165.575 32.5237 165.522 32.4856C165.47 32.4475 165.411 32.42 165.349 32.4048C165.286 32.3896 165.221 32.3869 165.157 32.3968H152.877C152.748 32.3766 152.615 32.4082 152.508 32.4849C152.402 32.5617 152.329 32.6773 152.307 32.8068C152.12 33.3389 151.932 33.8699 151.745 34.4006C151.11 36.1944 150.477 37.9857 149.867 39.8068C149.859 39.86 149.84 39.911 149.812 39.9569C149.783 40.0028 149.746 40.0426 149.703 40.0742C149.659 40.1058 149.61 40.1285 149.557 40.1409C149.505 40.1534 149.451 40.1554 149.397 40.1468H136.617C136.5 40.1501 136.383 40.1222 136.279 40.066C136.176 40.0098 136.089 39.9273 136.027 39.8268L126.027 26.1868L125.717 25.7768C125.506 25.9834 125.289 26.1773 125.074 26.3701L125.074 26.3702C124.861 26.5599 124.651 26.7484 124.447 26.9468C124.085 27.3139 123.722 27.6888 123.359 28.0646L123.358 28.0655L123.357 28.0659C122.899 28.5394 122.44 29.0143 121.977 29.4768C121.878 29.5691 121.8 29.6826 121.75 29.8089C121.699 29.9352 121.678 30.0712 121.687 30.2068V39.6668C121.687 40.0368 121.627 40.1668 121.217 40.1568H116.307C115.977 40.1568 115.887 40.0768 115.887 39.7468V9.45682C115.887 9.11682 115.967 9.02682 116.307 9.04682H121.307C121.597 9.04682 121.697 9.10682 121.697 9.41682V16.0268C121.673 18.1878 120.899 20.2731 119.507 21.9268C119.317 22.1468 119.337 22.2668 119.507 22.4468C119.858 22.7629 120.191 23.0967 120.507 23.4468C120.717 23.6768 120.837 23.6468 121.037 23.4468C122.277 22.0646 123.523 20.6945 124.769 19.3232L124.77 19.322L124.771 19.3207L124.773 19.3195L124.774 19.3183C125.798 18.191 126.824 17.063 127.847 15.9268L133.847 9.33682C133.891 9.26103 133.952 9.19635 134.025 9.14779C134.098 9.09924 134.181 9.06811 134.267 9.05682H141.617C141.646 9.04514 141.679 9.04514 141.707 9.05682C141.707 9.1695 141.618 9.2425 141.53 9.31424L141.53 9.31428L141.53 9.3143L141.53 9.31431C141.493 9.34442 141.457 9.37431 141.427 9.40682C137.554 13.4068 133.687 17.3868 129.827 21.3468C129.637 21.5468 129.567 21.6668 129.777 21.9268C134.304 27.8602 138.814 33.8068 143.307 39.7668C143.389 39.8525 143.475 39.9327 143.567 40.0068ZM154.277 27.4268H163.817C163.48 26.4367 163.142 25.4623 162.807 24.4932L162.806 24.492C162.545 23.7388 162.285 22.9888 162.027 22.2368C161.502 20.8528 161.055 19.4407 160.687 18.0068C160.35 16.3276 160.175 14.6196 160.167 12.9068C160.167 12.6068 160.077 12.4868 159.757 12.5268C159.345 12.5568 158.93 12.5568 158.517 12.5268C158.027 12.4668 157.917 12.6568 157.917 13.1168C157.968 15.6268 157.558 18.1247 156.707 20.4868C156.105 22.1093 155.538 23.7468 154.967 25.3958L154.966 25.398C154.732 26.0758 154.496 26.7554 154.257 27.4368L154.277 27.4268ZM103.847 40.1367H109.657C109.649 40.0792 109.642 40.0118 109.634 39.9381L109.634 39.9378C109.625 39.8452 109.614 39.7425 109.597 39.6367C109.52 39.2296 109.444 38.8225 109.369 38.4158L109.369 38.4147L109.369 38.4142C109.211 37.5625 109.053 36.7123 108.877 35.8667C108.619 34.1452 108.251 32.4418 107.777 30.7667C107.505 29.8269 106.979 28.9801 106.258 28.3188C105.536 27.6575 104.647 27.207 103.687 27.0167C102.644 26.7746 101.578 26.6373 100.507 26.6067C100.227 26.5967 100.157 26.5267 100.157 26.2467C100.197 25.8344 100.197 25.4191 100.157 25.0067C100.087 24.5167 100.327 24.4067 100.737 24.4067C102.321 24.3252 103.882 23.9875 105.357 23.4067C106.509 23.0112 107.5 22.2489 108.177 21.2367C108.665 20.3844 108.958 19.4353 109.037 18.4567C109.321 16.6523 108.962 14.8054 108.023 13.2389C107.083 11.6724 105.623 10.4859 103.897 9.88674C102.243 9.26534 100.484 8.96662 98.7174 9.00674H84.5274C84.2374 9.00674 84.1774 9.09674 84.1774 9.37674V39.7567C84.1774 40.0567 84.2674 40.1267 84.5674 40.1267H89.1874C89.6075 40.1267 89.8149 40.1267 89.9174 40.023C90.0174 39.9218 90.0174 39.7218 90.0174 39.3267V28.3267C90.0174 28.2898 90.0146 28.2527 90.0118 28.2164C89.9982 28.0361 89.9861 27.8767 90.3274 27.8767C91.2915 27.9025 92.2556 27.8951 93.2205 27.8878C94.5074 27.878 95.7958 27.8682 97.0874 27.9367C98.0965 27.9588 99.085 28.2265 99.9674 28.7167C100.563 29.0971 101.069 29.6013 101.452 30.1949C101.835 30.7884 102.086 31.4576 102.187 32.1567C102.538 33.8741 102.784 35.6103 103.031 37.346L103.031 37.3461L103.031 37.3462C103.143 38.1371 103.255 38.9279 103.377 39.7167C103.437 40.0167 103.497 40.1367 103.847 40.1367ZM89.9974 22.6267V18.5167V14.3867C89.9974 14.1367 90.0574 14.0567 90.3274 14.0567C91.2303 14.0567 92.1344 14.0434 93.0389 14.0301C94.8489 14.0034 96.6603 13.9767 98.4674 14.0567C99.2282 14.0462 99.9807 14.2155 100.664 14.5509C101.347 14.8862 101.941 15.3782 102.397 15.9867C102.414 16.0143 102.431 16.0412 102.447 16.0677C102.49 16.1372 102.531 16.2043 102.567 16.2767C102.852 16.7907 103.033 17.3559 103.099 17.9398C103.165 18.5237 103.116 19.1149 102.953 19.6796C102.791 20.2443 102.518 20.7714 102.152 21.2308C101.785 21.6902 101.332 22.0728 100.817 22.3567C99.8043 22.8408 98.6896 23.074 97.5674 23.0367H90.4074C90.0874 23.0367 89.9974 22.9467 89.9974 22.6267ZM212.497 24.5667V9.51673C212.497 9.11673 212.577 9.00673 212.987 9.01673H234.917C235.267 9.01673 235.387 9.07673 235.387 9.45673V13.5467C235.387 13.9167 235.307 14.0167 234.917 14.0167H218.777C218.367 14.0167 218.287 14.1367 218.287 14.5267V21.2267C218.287 21.6367 218.397 21.6967 218.767 21.6867H230.567C231.027 21.6867 231.107 21.8167 231.097 22.2467V26.1467C231.097 26.5167 230.997 26.5967 230.647 26.5967H218.757C218.347 26.5967 218.287 26.6967 218.287 27.0667V34.7367C218.287 35.1467 218.407 35.2267 218.797 35.2267H234.887C235.297 35.2267 235.387 35.3167 235.387 35.7267V39.8067C235.387 40.1067 235.387 40.2167 234.997 40.2167H212.877C212.517 40.2167 212.507 40.0867 212.507 39.8067C212.507 34.7001 212.504 29.6201 212.497 24.5667Z" fill="url(#paint10_linear_752_5173)"/>
<defs>
<radialGradient id="paint0_radial_752_5173" cx="0" cy="0" r="1" gradientUnits="userSpaceOnUse" gradientTransform="translate(32.7637 0.731764) scale(5.29765)">
<stop offset="0.06" stop-color="#4BFE9C"/>
<stop offset="0.49" stop-color="#3283F8"/>
<stop offset="0.88" stop-color="#E800B4"/>
</radialGradient>
<linearGradient id="paint1_linear_752_5173" x1="-7.56944" y1="35.298" x2="30.2573" y2="45.1944" gradientUnits="userSpaceOnUse">
<stop stop-color="#4BFE9C"/>
<stop offset="0.52" stop-color="#3283F8"/>
<stop offset="1" stop-color="#E800B4"/>
</linearGradient>
<linearGradient id="paint2_linear_752_5173" x1="1.75147" y1="20.7925" x2="21.7755" y2="45.8223" gradientUnits="userSpaceOnUse">
<stop offset="0.08" stop-color="#4BFE9C"/>
<stop offset="1" stop-color="#3283F8"/>
</linearGradient>
<linearGradient id="paint3_linear_752_5173" x1="22.8067" y1="44.7609" x2="14.4204" y2="39.4087" gradientUnits="userSpaceOnUse">
<stop stop-color="#3283F8"/>
<stop offset="1" stop-color="#E801B5"/>
</linearGradient>
<linearGradient id="paint4_linear_752_5173" x1="10.6704" y1="26.7612" x2="24.6815" y2="20.1135" gradientUnits="userSpaceOnUse">
<stop stop-color="#3283F8"/>
<stop offset="1" stop-color="#E801B5"/>
</linearGradient>
<radialGradient id="paint5_radial_752_5173" cx="0" cy="0" r="1" gradientUnits="userSpaceOnUse" gradientTransform="translate(11.0889 1.59418) scale(29.2832)">
<stop offset="0.06" stop-color="#4BFE9C"/>
<stop offset="0.49" stop-color="#3283F8"/>
<stop offset="0.88" stop-color="#E800B4"/>
</radialGradient>
<linearGradient id="paint6_linear_752_5173" x1="13.3298" y1="26.6586" x2="20.6713" y2="28.7635" gradientUnits="userSpaceOnUse">
<stop stop-color="#4CFF9D"/>
<stop offset="0.489583" stop-color="#3283F8"/>
<stop offset="1" stop-color="#E801B5"/>
</linearGradient>
<linearGradient id="paint7_linear_752_5173" x1="16.0602" y1="25.1307" x2="16.5879" y2="40.6432" gradientUnits="userSpaceOnUse">
<stop stop-color="#3283F8" stop-opacity="0"/>
<stop offset="1" stop-color="#E800B4"/>
</linearGradient>
<radialGradient id="paint8_radial_752_5173" cx="0" cy="0" r="1" gradientUnits="userSpaceOnUse" gradientTransform="translate(8.24091 17.8155) scale(3.09091)">
<stop offset="0.06" stop-color="#4BFE9C"/>
<stop offset="0.49" stop-color="#3283F8"/>
<stop offset="0.88" stop-color="#E800B4"/>
</radialGradient>
<radialGradient id="paint9_radial_752_5173" cx="0" cy="0" r="1" gradientUnits="userSpaceOnUse" gradientTransform="translate(27.9419 20.5078) scale(4.35428)">
<stop offset="0.06" stop-color="#4BFE9C"/>
<stop offset="0.49" stop-color="#3283F8"/>
<stop offset="0.88" stop-color="#E800B4"/>
</radialGradient>
<linearGradient id="paint10_linear_752_5173" x1="141.567" y1="-46.4932" x2="179.067" y2="84.0068" gradientUnits="userSpaceOnUse">
<stop stop-color="#3283F8"/>
<stop offset="1" stop-color="#E801B5"/>
</linearGradient>
</defs>
</svg>
